<svg xmlns="http://www.w3.org/2000/svg" viewBox="0 0 900 600" width="60" height="40">
  <!-- Red background -->
  <rect width="900" height="600" fill="#DE2910"/>
  <!-- Large star -->
  <path d="M 450,120 L 468,180 L 530,180 L 485,220 L 503,280 L 450,250 L 397,280 L 415,220 L 370,180 L 432,180 Z" fill="#FFDE00"/>
  <!-- Small stars -->
  <path d="M 180,180 L 190,205 L 215,205 L 195,220 L 205,245 L 180,230 L 155,245 L 165,220 L 145,205 L 170,205 Z" fill="#FFDE00"/>
  <path d="M 270,150 L 278,170 L 298,170 L 282,185 L 290,205 L 270,195 L 250,205 L 258,185 L 242,170 L 262,170 Z" fill="#FFDE00"/>
  <path d="M 270,240 L 278,260 L 298,260 L 282,275 L 290,295 L 270,285 L 250,295 L 258,275 L 242,260 L 262,260 Z" fill="#FFDE00"/>
  <path d="M 180,300 L 190,325 L 215,325 L 195,340 L 205,365 L 180,350 L 155,365 L 165,340 L 145,325 L 170,325 Z" fill="#FFDE00"/>
</svg>

